#!OML:ASF G:\JayActor3\Patient Classification 1\Patient 1\Session 5\male.ASF
:FULLY-SPECIFIED
:DEGREES
460
root -24.4223 14.2357 -6.03103 -194.348 88.1033 -207.39
lowerback 36.0998 -1.43531 0.895778
upperback 7.42458 -0.684249 -1.13449
thorax -9.79498 0.0536651 -1.47944
lowerneck -5.35383 -0.672495 1.7891
upperneck -12.3343 -0.405005 2.0922
head -3.02185 -0.178256 0.365203
rclavicle 1.68967e-014 3.59303e-014
rhumerus -20.0412 3.20881 -84.8194
rradius 41.8956
rwrist -4.73363
rhand -20.4981 -9.45602
rfingers 7.12502
rthumb 5.85892 -39.355
lclavicle 1.68967e-014 3.59303e-014
lhumerus -22.6927 -8.04327 81.8239
lradius 41.0386
lwrist 22.5346
lhand -17.7793 11.3194
lfingers 7.12502
lthumb 8.48334 41.129
rfemur -46.9331 -7.72932 20.8348
rtibia 98.2763
rfoot -11.2091 2.19767
rtoes -14.1861
lfemur -68.4532 0.590364 -26.2622
ltibia 69.7425
lfoot -16.7002 5.52133
ltoes 0.484041
461
root -24.2934 14.2432 -6.05664 -193.18 88.1763 -206.185
lowerback 36.1192 -1.41179 0.928427
upperback 7.41199 -0.640272 -1.09882
thorax -9.81453 0.0721605 -1.47576
lowerneck -5.35455 -0.677495 1.8158
upperneck -12.2776 -0.421741 2.03721
head -3.00228 -0.186863 0.34288
rclavicle 3.27995e-015 4.87022e-015
rhumerus -20.07 3.09823 -84.7653
rradius 41.8098
rwrist -4.67108
rhand -20.4699 -9.4278
rfingers 7.12502
rthumb 5.88618 -39.326
lclavicle 3.27995e-015 4.87022e-015
lhumerus -22.7943 -8.13106 81.8767
lradius 41.079
lwrist 22.5865
lhand -17.7096 11.3877
lfingers 7.12502
lthumb 8.55061 41.1946
rfemur -47.646 -7.85404 20.4769
rtibia 99.3635
rfoot -8.11629 2.17706
rtoes -11.5203
lfemur -68.0629 0.438302 -26.1883
ltibia 70.1544
lfoot -17.0033 5.75198
ltoes 1.34128
462
root -24.1649 14.2503 -6.08183 -192.403 88.2492 -205.353
lowerback 36.1491 -1.38998 0.94468
upperback 7.40293 -0.603819 -1.06592
thorax -9.83405 0.0878612 -1.46347
lowerneck -5.36426 -0.676195 1.83517
upperneck -12.2234 -0.430222 1.97483
head -2.982 -0.190641 0.319341
rclavicle 4.67144e-015 1.00386e-014
rhumerus -20.0949 3.01382 -84.7178
rradius 41.7512
rwrist -4.62099
rhand -20.4344 -9.40847
rfingers 7.12502
rthumb 5.9204 -39.3058
lclavicle 4.67144e-015 1.00386e-014
lhumerus -22.8949 -8.18487 81.9143
lradius 41.1145
lwrist 22.6271
lhand -17.6226 11.4112
lfingers 7.12502
lthumb 8.63457 41.2147
rfemur -48.4519 -8.00422 20.1057
rtibia 100.49
rfoot -5.00829 2.05144
rtoes -8.96691
lfemur -67.6476 0.289171 -26.1346
ltibia 70.556
lfoot -17.3473 5.99482
ltoes 2.09573
463
root -24.0371 14.2569 -6.10633 -192.129 88.3165 -205.01
lowerback 36.1876 -1.36901 0.945572
upperback 7.39615 -0.5739 -1.0383
thorax -9.85425 0.101162 -1.44618
lowerneck -5.34897 -0.679966 1.85462
upperneck -12.1935 -0.444634 1.90658
head -2.97454 -0.197562 0.294165
rclavicle -7.95139e-016 -2.83268e-015
rhumerus -20.1235 2.9433 -84.6796
rradius 41.7224
rwrist -4.58349
rhand -20.4049 -9.39168
rfingers 7.12502
rthumb 5.94896 -39.2882
lclavicle -7.95139e-016 -2.83268e-015
lhumerus -22.993 -8.22665 81.9396
lradius 41.1412
lwrist 22.6442
lhand -17.5565 11.4736
lfingers 7.12502
lthumb 8.69837 41.2744
rfemur -49.3372 -8.17626 19.7287
rtibia 101.626
rfoot -1.86466 1.82357
rtoes -6.4824
lfemur -67.211 0.140874 -26.1036
ltibia 70.9534
lfoot -17.7492 6.24445
ltoes 2.7009
464
root -23.9095 14.2622 -6.13044 -192.524 88.3902 -205.321
lowerback 36.2294 -1.34768 0.926683
upperback 7.39756 -0.550235 -1.01527
thorax -9.8665 0.112484 -1.42091
lowerneck -5.34531 -0.681402 1.85785
upperneck -12.1626 -0.454945 1.8447
head -2.96462 -0.20172 0.27372
rclavicle -1.39149e-015 7.10655e-015
rhumerus -20.1411 2.90233 -84.651
rradius 41.7137
rwrist -4.56313
rhand -20.3943 -9.37678
rfingers 7.12502
rthumb 5.9591 -39.273
lclavicle -1.39149e-015 7.10655e-015
lhumerus -23.0832 -8.2408 81.9507
lradius 41.1588
lwrist 22.6481
lhand -17.5038 11.5118
lfingers 7.12502
lthumb 8.7492 41.3104
rfemur -50.2844 -8.35733 19.3501
rtibia 102.742
rfoot 1.27662 1.51295
rtoes -4.05527
lfemur -66.7519 0.00548068 -26.0954
ltibia 71.3441
lfoot -18.2197 6.49949
ltoes 3.12427
465
root -23.7822 14.2663 -6.15398 -193.689 88.4633 -206.388
lowerback 36.2724 -1.3247 0.894621
upperback 7.40452 -0.529681 -1.00129
thorax -9.87309 0.123045 -1.39716
lowerneck -5.33656 -0.685251 1.86048
upperneck -12.1307 -0.468331 1.78526
head -2.9553 -0.207569 0.254221
rclavicle -4.67144e-015 -1.31695e-014
rhumerus -20.1577 2.86643 -84.6346
rradius 41.7223
rwrist -4.55207
rhand -20.4032 -9.36686
rfingers 7.12502
rthumb 5.95056 -39.2633
lclavicle -4.67144e-015 -1.31695e-014
lhumerus -23.1596 -8.24745 81.9494
lradius 41.1531
lwrist 22.6327
lhand -17.4921 11.5297
lfingers 7.12502
lthumb 8.76047 41.3279
rfemur -51.28 -8.54974 18.9791
rtibia 103.815
rfoot 4.29695 1.16708
rtoes -1.74565
lfemur -66.2677 -0.121474 -26.1103
ltibia 71.7292
lfoot -18.7634 6.7548
ltoes 3.36215
466
root -23.6554 14.269 -6.17677 -195.539 88.5367 -208.128
lowerback 36.3098 -1.30323 0.848775
upperback 7.42257 -0.515586 -0.992389
thorax -9.86535 0.131504 -1.36903
lowerneck -5.34215 -0.687914 1.85237
upperneck -12.0921 -0.479668 1.73217
head -2.94106 -0.211926 0.238507
rclavicle 2.1419e-014 2.8128e-014
rhumerus -20.156 2.85361 -84.6293
rradius 41.7363
rwrist -4.5499
rhand -20.4403 -9.35748
rfingers 7.12502
rthumb 5.91477 -39.2549
lclavicle 2.1419e-014 2.8128e-014
lhumerus -23.2163 -8.23525 81.936
lradius 41.1272
lwrist 22.6023
lhand -17.5157 11.5345
lfingers 7.12502
lthumb 8.7377 41.3336
rfemur -52.3182 -8.75108 18.6324
rtibia 104.84
rfoot 6.84362 1.02932
rtoes 0.273849
lfemur -65.7642 -0.238003 -26.1415
ltibia 72.1108
lfoot -19.3672 7.0151
ltoes 3.43016
467
root -23.5293 14.2698 -6.19842 -197.951 88.6078 -210.421
lowerback 36.3425 -1.28128 0.794515
upperback 7.44691 -0.503964 -0.988003
thorax -9.84893 0.139319 -1.34032
lowerneck -5.34863 -0.690496 1.84197
upperneck -12.0477 -0.490756 1.6833
head -2.92467 -0.216215 0.224527
rclavicle -1.90833e-014 -4.10987e-014
rhumerus -20.1437 2.84697 -84.6333
rradius 41.7522
rwrist -4.55179
rhand -20.4926 -9.34686
rfingers 7.12502
rthumb 5.8642 -39.2457
lclavicle -1.90833e-014 -4.10987e-014
lhumerus -23.2565 -8.21614 81.9122
lradius 41.0769
lwrist 22.5645
lhand -17.5799 11.4987
lfingers 7.12502
lthumb 8.67579 41.3004
rfemur -53.3946 -8.95985 18.3262
rtibia 105.812
rfoot 8.6415 1.20686
rtoes 2.00681
lfemur -65.2495 -0.343646 -26.1838
ltibia 72.4917
lfoot -20.0135 7.27021
ltoes 3.36942
468
root -23.4039 14.2688 -6.21889 -200.804 88.673 -213.147
lowerback 36.3724 -1.26235 0.733368
upperback 7.47821 -0.498085 -0.985436
thorax -9.82378 0.145 -1.30766
lowerneck -5.35791 -0.690776 1.83036
upperneck -12.0021 -0.498572 1.63598
head -2.90738 -0.218831 0.211214
rclavicle -2.6339e-015 -7.95139e-016
rhumerus -20.1161 2.8544 -84.6458
rradius 41.7662
rwrist -4.55309
rhand -20.5501 -9.3416
rfingers 7.12502
rthumb 5.80873 -39.242
lclavicle -2.6339e-015 -7.95139e-016
lhumerus -23.2823 -8.17967 81.8786
lradius 41.0077
lwrist 22.5239
lhand -17.6716 11.4625
lfingers 7.12502
lthumb 8.58731 41.2678
rfemur -54.4972 -9.17765 18.0733
rtibia 106.712
rfoot 9.48182 1.68776
rtoes 3.04099
lfemur -64.7207 -0.443559 -26.2356
ltibia 72.8674
lfoot -20.6623 7.55281
ltoes 3.10764
469
root -23.2794 14.2661 -6.23801 -203.768 88.7305 -215.981
lowerback 36.4032 -1.24476 0.6812
upperback 7.50675 -0.491551 -0.988811
thorax -9.80222 0.150741 -1.28636
lowerneck -5.34572 -0.693515 1.83935
upperneck -11.9616 -0.510375 1.58286
head -2.89583 -0.224477 0.192686
rclavicle -4.91992e-015 -1.43622e-014
rhumerus -20.0908 2.84507 -84.67
rradius 41.7759
rwrist -4.5516
rhand -20.6056 -9.33191
rfingers 7.12502
rthumb 5.75515 -39.2338
lclavicle -4.91992e-015 -1.43622e-014
lhumerus -23.3038 -8.15525 81.8323
lradius 40.9216
lwrist 22.4901
lhand -17.771 11.4064
lfingers 7.12502
lthumb 8.49131 41.2157
rfemur -55.6324 -9.39579 17.8928
rtibia 107.524
rfoot 9.41773 2.34734
rtoes 3.56474
lfemur -64.1888 -0.541431 -26.2895
ltibia 73.2375
lfoot -21.3255 7.8422
ltoes 2.84393
470
root -23.1556 14.262 -6.25602 -206.888 88.785 -218.968
lowerback 36.4326 -1.23059 0.631789
upperback 7.53759 -0.488189 -0.99347
thorax -9.77772 0.155089 -1.26663
lowerneck -5.33416 -0.693307 1.85405
upperneck -11.9202 -0.518399 1.5287
head -2.88391 -0.228431 0.17283
rclavicle -7.95139e-015 2.38542e-015
rhumerus -20.0537 2.83786 -84.7027
rradius 41.7803
rwrist -4.54869
rhand -20.6447 -9.32785
rfingers 7.12502
rthumb 5.71744 -39.2307
lclavicle -7.95139e-015 2.38542e-015
lhumerus -23.3144 -8.11477 81.7748
lradius 40.8194
lwrist 22.4678
lhand -17.8534 11.3451
lfingers 7.12502
lthumb 8.41183 41.1576
rfemur -56.7941 -9.60104 17.7889
rtibia 108.216
rfoot 8.54254 3.04389
rtoes 3.58883
lfemur -63.6519 -0.636374 -26.3453
ltibia 73.5997
lfoot -21.996 8.14538
ltoes 2.56731
471
root -23.0325 14.2576 -6.27279 -209.918 88.837 -221.865
lowerback 36.4641 -1.22074 0.586584
upperback 7.56996 -0.488141 -0.995859
thorax -9.75234 0.157918 -1.2454
lowerneck -5.33071 -0.689309 1.87043
upperneck -11.8782 -0.521287 1.47451
head -2.87034 -0.229742 0.152614
rclavicle -1.20762e-014 -2.65378e-014
rhumerus -20.004 2.83715 -84.7424
rradius 41.7808
rwrist -4.54466
rhand -20.6733 -9.31687
rfingers 7.12502
rthumb 5.68982 -39.2205
lclavicle -1.20762e-014 -2.65378e-014
lhumerus -23.3168 -8.06258 81.7089
lradius 40.7115
lwrist 22.4537
lhand -17.9235 11.331
lfingers 7.12502
lthumb 8.34414 41.1462
rfemur -57.9837 -9.7732 17.7717
rtibia 108.762
rfoot 7.08785 3.5787
rtoes 3.12932
lfemur -63.1104 -0.728727 -26.396
ltibia 73.9495
lfoot -22.6732 8.4513
ltoes 2.32236
